<svg width="43" height="44" viewBox="0 0 43 44" fill="none" xmlns="http://www.w3.org/2000/svg">
<path d="M23.4943 43.4066C21.9444 43.4069 20.41 43.0981 18.9807 42.4984C17.5515 41.8986 16.2559 41.0199 15.1698 39.9136C14.8271 39.9442 14.483 39.9595 14.1434 39.9595C12.4195 39.9596 10.717 39.578 9.15802 38.8419C7.599 38.1058 6.22214 37.0335 5.1262 35.702C4.03027 34.3704 3.24244 32.8127 2.81924 31.1405C2.39605 29.4682 2.34797 27.723 2.67847 26.03C0.9431 23.9386 -0.00467797 21.3045 1.73621e-05 18.5862C0.010905 16.0671 0.83002 13.6181 2.33669 11.6001C3.84337 9.582 5.95793 8.10152 8.36885 7.37675C9.0663 5.61914 10.1794 4.05705 11.6127 2.82449C13.046 1.59192 14.7566 0.725656 16.598 0.300004C18.4393 -0.125648 20.3563 -0.0979857 22.1846 0.38062C24.0129 0.859226 25.6979 1.77449 27.0951 3.0479C28.9639 2.80936 30.8626 3.02634 32.6296 3.68035C34.3965 4.33437 35.9793 5.40604 37.2432 6.8041C38.507 8.20215 39.4145 9.88517 39.8883 11.7098C40.3621 13.5344 40.3881 15.4466 39.9642 17.2835C41.7494 19.3908 42.7256 22.0658 42.7177 24.8284C42.7068 27.3474 41.8876 29.7964 40.381 31.8145C38.8743 33.8325 36.7597 35.313 34.3488 36.0378C33.4909 38.2166 31.9959 40.0856 30.0592 41.4004C28.1226 42.7151 25.8345 43.4144 23.4943 43.4066ZM23.8002 32.6228L16.9044 37.3389C17.908 38.5183 19.2091 39.407 20.6724 39.9125C22.1356 40.418 23.7075 40.5218 25.2245 40.2131C26.7414 39.9045 28.148 39.1946 29.2978 38.1574C30.4475 37.1203 31.2985 35.7937 31.7621 34.3157L23.8078 32.6228L32.8895 33.2917C34.4039 32.9625 35.8023 32.2327 36.9388 31.1784C38.0754 30.1242 38.9084 28.7841 39.3511 27.2979C39.7937 25.8118 39.8298 24.234 39.4555 22.7291C39.0812 21.2242 38.3102 19.8474 37.2231 18.7423L31.909 18.9505L36.8575 17.233C37.3084 15.7953 37.3772 14.2648 37.057 12.7924C36.7368 11.32 36.0387 9.95655 35.0315 8.83636C34.0243 7.71617 32.7428 6.87795 31.3133 6.40431C29.8838 5.93068 28.3556 5.83798 26.8794 6.13535L18.4662 10.5438L25.5027 5.69756C24.463 4.60632 23.1569 3.80536 21.7132 3.37381C20.2695 2.94225 18.7384 2.89502 17.2709 3.23679C15.8034 3.57856 14.4504 4.2975 13.3455 5.32259C12.2407 6.34769 11.4221 7.64348 10.9708 9.08197L18.4662 10.5438L9.84193 10.1152C8.33934 10.4425 6.95095 11.1643 5.81948 12.2065C4.68801 13.2486 3.85428 14.5734 3.40398 16.0448C2.95367 17.5162 2.90304 19.081 3.2573 20.5785C3.61155 22.0759 4.35791 23.4519 5.41965 24.5651L9.90924 23.8426L5.77912 26.0009C5.43117 27.2862 5.38375 28.6344 5.64056 29.941C5.89736 31.2476 6.45148 32.4775 7.25994 33.5352C8.0684 34.5929 9.10946 35.45 10.3024 36.0401C11.4953 36.6302 12.8081 36.9374 14.1388 36.9379C14.5998 36.9374 15.0601 36.901 15.5155 36.8292L23.8002 32.6228Z" fill="#064BA2"/>
<path d="M23.4436 32.5421C21.7506 32.9197 19.9171 32.091 18.2821 30.2088C16.7114 28.4015 15.4921 25.8159 14.8503 22.9261C14.2086 20.0363 14.2132 17.177 14.8671 14.8744C15.5501 12.4753 16.8535 10.9463 18.5526 10.5687C20.2517 10.191 22.0684 11.0212 23.7095 12.9019C25.2772 14.7092 26.4995 17.2902 27.1413 20.1846C27.783 23.079 27.7784 25.9337 27.1229 28.2364C26.4415 30.6354 25.1335 32.1644 23.4436 32.5421ZM18.7482 11.4417C17.3913 11.7475 16.3202 13.0487 15.7335 15.1114C15.1223 17.2734 15.1223 19.9751 15.7335 22.7212C16.3447 25.4673 17.4937 27.9122 18.9667 29.6094C20.3754 31.2302 21.8988 31.9565 23.2541 31.6537C24.6094 31.351 25.6821 30.0483 26.2688 27.9841C26.88 25.8221 26.88 23.1203 26.2688 20.3742C25.6576 17.6281 24.5086 15.1832 23.0356 13.4937C21.6268 11.8729 20.1035 11.1466 18.7482 11.4494V11.4417Z" fill="#064BA2"/>
<path d="M30.6357 27.0484C30.5524 27.0667 30.4656 27.0614 30.3851 27.0331C28.1711 26.2319 25.1763 26.1585 22.1677 26.8297C19.1592 27.501 16.4776 28.8388 14.8136 30.4993C14.736 30.5748 14.6342 30.6203 14.5263 30.6279C14.4183 30.6354 14.3112 30.6045 14.2238 30.5406C12.0512 28.902 10.5456 26.531 9.98594 23.8667C9.42631 21.2024 9.85057 18.4255 11.1801 16.0502C11.2313 15.9621 11.3102 15.8936 11.4045 15.8554C11.4989 15.8172 11.6032 15.8115 11.7012 15.8392C13.877 16.489 16.8 16.489 19.7215 15.8392C22.6429 15.1894 25.2894 13.9463 26.9839 12.4341C27.0608 12.3671 27.1579 12.3277 27.2598 12.3222C27.3616 12.3167 27.4624 12.3453 27.5462 12.4035C29.7574 13.9902 31.3188 16.3252 31.9411 18.9759C32.5634 21.6265 32.2044 24.413 30.9306 26.819C30.9011 26.8764 30.8594 26.9267 30.8085 26.9663C30.7575 27.0059 30.6986 27.0339 30.6357 27.0484ZM21.9721 25.9505C24.9777 25.2808 27.9893 25.3221 30.3133 26.0576C31.3466 23.9156 31.6115 21.483 31.0636 19.1686C30.5157 16.8541 29.1884 14.799 27.3047 13.3484C25.4972 14.8515 22.8324 16.067 19.917 16.7214C17.0017 17.3758 14.0726 17.3988 11.7974 16.8055C10.7078 18.9193 10.3781 21.3439 10.8639 23.6721C11.3497 26.0003 12.6214 28.0903 14.4653 29.5911C16.2621 27.9383 18.9666 26.6172 21.9721 25.9505Z" fill="#064BA2"/>
<path d="M23.4436 32.5419C21.8547 32.8969 20.2077 32.9021 18.6166 32.5573C17.0255 32.2126 15.5283 31.526 14.2285 30.5451C14.178 30.5055 14.1365 30.4557 14.1065 30.3991C14.0764 30.3424 14.0586 30.2801 14.0542 30.2161C14.0497 30.1522 14.0587 30.088 14.0805 30.0277C14.1024 29.9674 14.1367 29.9124 14.1811 29.8662C15.9642 28.0849 18.8062 26.6553 21.9737 25.9504C25.1412 25.2455 28.3224 25.3296 30.6923 26.1858C30.7529 26.2075 30.8081 26.242 30.8543 26.2869C30.9004 26.3319 30.9362 26.3862 30.9594 26.4463C30.9826 26.5064 30.9926 26.5708 30.9887 26.6351C30.9848 26.6993 30.9671 26.762 30.9367 26.8189C30.1768 28.2592 29.1131 29.517 27.8193 30.5052C26.5254 31.4934 25.0324 32.1883 23.4436 32.5419ZM15.2018 30.1338C16.368 30.9219 17.6827 31.4638 19.0654 31.7262C20.4481 31.9887 21.8697 31.9661 23.2434 31.66C24.6171 31.3539 25.9139 30.7706 27.0547 29.9458C28.1954 29.1211 29.156 28.0721 29.8779 26.8632C27.725 26.2225 24.9517 26.2057 22.1678 26.8265C19.3838 27.4473 16.8734 28.643 15.2018 30.1338Z" fill="#064BA2"/>
<path d="M19.917 16.7214C16.8504 17.4048 13.7624 17.4002 11.4444 16.7061C11.3797 16.6869 11.3201 16.6534 11.2701 16.6081C11.2201 16.5627 11.1809 16.5067 11.1555 16.4441C11.1301 16.3815 11.1191 16.314 11.1234 16.2466C11.1277 16.1792 11.147 16.1136 11.1801 16.0547C11.9534 14.673 13.0093 13.4701 14.2789 12.5247C15.5485 11.5793 17.0032 10.9127 18.5479 10.5683C20.0926 10.224 21.6925 10.2098 23.243 10.5265C24.7936 10.8433 26.2599 11.4839 27.5461 12.4065C27.6005 12.4464 27.6453 12.4977 27.6775 12.5569C27.7098 12.6161 27.7285 12.6817 27.7326 12.749C27.736 12.8166 27.724 12.884 27.6975 12.9463C27.671 13.0085 27.6308 13.0639 27.5798 13.1083C25.7783 14.7214 22.9852 16.0379 19.917 16.7214ZM12.265 15.9936C14.369 16.489 17.046 16.4385 19.7214 15.8407C22.3969 15.2428 24.8432 14.1587 26.5377 12.8102C24.2228 11.3402 21.4195 10.8496 18.7435 11.4462C16.0674 12.0428 13.7374 13.6777 12.265 15.992V15.9936Z" fill="#064BA2"/>
<path d="M18.114 11.1114C18.1011 11.0538 18.0996 10.9941 18.1097 10.9359C18.1198 10.8777 18.1412 10.8221 18.1728 10.7722C18.2365 10.6714 18.3377 10.6001 18.454 10.5739C18.5703 10.5478 18.6922 10.5689 18.793 10.6327C18.8937 10.6965 18.9649 10.7978 18.9911 10.9141L23.8286 32.0145C23.8473 32.1282 23.8218 32.2448 23.7573 32.3403C23.6928 32.4358 23.5942 32.5029 23.4818 32.528C23.3694 32.553 23.2516 32.534 23.1527 32.4749C23.0538 32.4158 22.9813 32.3211 22.95 32.2102" fill="#064BA2"/>
<path d="M31.6319 19.6449L10.546 24.3451C10.4324 24.3638 10.3159 24.3383 10.2204 24.2737C10.125 24.2092 10.0579 24.1105 10.0329 23.998C10.0078 23.8855 10.0268 23.7677 10.0859 23.6688C10.1449 23.5698 10.2396 23.4972 10.3504 23.4659L31.4363 18.7657C31.55 18.747 31.6665 18.7726 31.7619 18.8371C31.8573 18.9017 31.9244 19.0003 31.9495 19.1128C31.9745 19.2253 31.9555 19.3431 31.8965 19.4421C31.8374 19.541 31.7428 19.6136 31.6319 19.6449Z" fill="#064BA2"/>
</svg>
