<svg width="27" height="27" viewBox="0 0 27 27" fill="none" xmlns="http://www.w3.org/2000/svg">
<g clip-path="url(#clip0_25_6162)">
<path d="M9.25488 7.64648H5.03613C4.59928 7.64648 4.24512 8.00065 4.24512 8.4375C4.24512 8.87435 4.59928 9.22852 5.03613 9.22852H9.25488C9.69173 9.22852 10.0459 8.87435 10.0459 8.4375C10.0459 8.00065 9.69173 7.64648 9.25488 7.64648Z" fill="#064BA2"/>
<path d="M9.25488 11.8652H5.03613C4.59928 11.8652 4.24512 12.2194 4.24512 12.6562C4.24512 13.0931 4.59928 13.4473 5.03613 13.4473H9.25488C9.69173 13.4473 10.0459 13.0931 10.0459 12.6562C10.0459 12.2194 9.69173 11.8652 9.25488 11.8652Z" fill="#064BA2"/>
<path d="M9.25488 16.084H5.03613C4.59928 16.084 4.24512 16.4381 4.24512 16.875C4.24512 17.3119 4.59928 17.666 5.03613 17.666H9.25488C9.69173 17.666 10.0459 17.3119 10.0459 16.875C10.0459 16.4381 9.69173 16.084 9.25488 16.084Z" fill="#064BA2"/>
<path d="M20.5928 14.4982V7.27629C20.5928 6.23373 20.1908 5.25018 19.4608 4.50631L16.2513 1.18726C16.2498 1.18568 16.2482 1.18404 16.2467 1.18246C15.5077 0.430998 14.4794 0 13.4256 0H3.24316C1.93467 0 0.870117 1.06455 0.870117 2.37305V22.8867C0.870117 24.1952 1.93467 25.2598 3.24316 25.2598H15.4687C16.596 26.3373 18.1229 27 19.8018 27C23.2911 27 26.1299 24.1849 26.1299 20.7246C26.1299 17.53 23.7102 14.8854 20.5928 14.4982ZM2.45215 22.8867V2.37305C2.45215 1.93688 2.807 1.58203 3.24316 1.58203H13.4256C14.0571 1.58203 14.6732 1.83995 15.1166 2.28962L18.3256 5.60814C18.3271 5.60972 18.3286 5.61131 18.3301 5.61284C18.769 6.05934 19.0107 6.65007 19.0107 7.27634V14.4989C15.9225 14.8891 13.5264 17.5323 13.5264 20.7247C13.5264 21.7916 13.7944 22.7971 14.2661 23.6778H3.24316C2.807 23.6777 2.45215 23.3229 2.45215 22.8867ZM19.8018 25.418C17.2138 25.418 15.1084 23.3125 15.1084 20.7246C15.1084 18.1367 17.2138 16.0312 19.8018 16.0312C22.4188 16.0312 24.5479 18.1367 24.5479 20.7246C24.5479 23.3125 22.4188 25.418 19.8018 25.418Z" fill="#064BA2"/>
<path d="M21.6265 18.8512C21.291 18.5717 20.7921 18.617 20.5124 18.9525L19.1774 20.5547L18.8745 19.949C18.6791 19.5582 18.204 19.3997 17.8132 19.5952C17.4225 19.7906 17.2641 20.2657 17.4595 20.6565L18.3032 22.344C18.4226 22.5827 18.6544 22.7452 18.9195 22.7759C18.9501 22.7794 18.9805 22.7812 19.0108 22.7812C19.244 22.7812 19.4672 22.6781 19.6184 22.4966L21.7278 19.9654C22.0075 19.6297 21.9621 19.1309 21.6265 18.8512Z" fill="#064BA2"/>
<path d="M13.4736 9.22852H14.3174C14.7542 9.22852 15.1084 8.87435 15.1084 8.4375C15.1084 8.00065 14.7542 7.64648 14.3174 7.64648H13.4736C13.0368 7.64648 12.6826 8.00065 12.6826 8.4375C12.6826 8.87435 13.0368 9.22852 13.4736 9.22852Z" fill="#064BA2"/>
<path d="M15.1084 12.6562C15.1084 12.2194 14.7542 11.8652 14.3174 11.8652H13.4736C13.0368 11.8652 12.6826 12.2194 12.6826 12.6562C12.6826 13.0931 13.0368 13.4473 13.4736 13.4473H14.3174C14.7542 13.4473 15.1084 13.0931 15.1084 12.6562Z" fill="#064BA2"/>
</g>
<defs>
<clipPath id="clip0_25_6162">
<rect width="27" height="27" fill="white"/>
</clipPath>
</defs>
</svg>
