<svg width="17" height="18" viewBox="0 0 17 18" fill="none" xmlns="http://www.w3.org/2000/svg">
<path d="M11.0153 9.33496L9.59156 10.7636C9.01419 11.343 7.9983 11.3554 7.40845 10.7636L5.9846 9.33496L0.870789 14.4654C1.06114 14.5534 1.27102 14.6059 1.49414 14.6059H15.5059C15.729 14.6059 15.9388 14.5535 16.1291 14.4654L11.0153 9.33496Z" fill="#064BA2"/>
<path d="M15.5059 2.65283H1.49414C1.27101 2.65283 1.06114 2.70536 0.87085 2.79338L6.33532 8.27598C6.33569 8.27635 6.33612 8.27641 6.33648 8.27678C6.33685 8.27714 6.33691 8.27764 6.33691 8.27764L8.11371 10.0603C8.30244 10.249 8.69762 10.249 8.88635 10.0603L10.6628 8.27794C10.6628 8.27794 10.6632 8.27714 10.6636 8.27678C10.6636 8.27678 10.6644 8.27635 10.6647 8.27598L16.1291 2.79335C15.9388 2.70529 15.729 2.65283 15.5059 2.65283Z" fill="#064BA2"/>
<path d="M0.15891 3.48975C0.0604297 3.6889 0 3.90996 0 4.14677V13.1116C0 13.3484 0.0603633 13.5695 0.158877 13.7686L5.28155 8.62936L0.15891 3.48975Z" fill="#064BA2"/>
<path d="M16.8411 3.48975L11.7185 8.62942L16.8411 13.7688C16.9396 13.5696 17 13.3485 17 13.1117V4.14684C17 3.90996 16.9396 3.6889 16.8411 3.48975Z" fill="#064BA2"/>
</svg>
