<svg width="32" height="32" viewBox="0 0 32 32" fill="none" xmlns="http://www.w3.org/2000/svg">
<path d="M15.9809 5.13867C10.386 5.13867 5.83417 9.69048 5.83417 15.2854C5.83417 17.0753 6.30673 18.8351 7.20067 20.3745C8.06779 21.8677 9.31029 23.1241 10.7938 24.008C11.2286 24.2672 11.468 24.6885 11.468 25.1944V27.5314C11.468 28.3721 12.0229 29.0857 12.7855 29.3253V29.3686C12.7855 30.7505 13.9097 31.8749 15.2917 31.8749H16.6701C18.052 31.8749 19.1764 30.7506 19.1764 29.3686V29.3253C19.939 29.0856 20.4937 28.372 20.4937 27.5314V25.1944C20.4937 24.6884 20.7332 24.2671 21.1681 24.008C22.6516 23.1241 23.8941 21.8677 24.7612 20.3745C25.6552 18.8351 26.1277 17.0753 26.1277 15.2854C26.1278 9.69042 21.5759 5.13867 15.9809 5.13867ZM16.6702 30.7498H15.2917C14.5445 30.7498 13.9344 30.1532 13.9117 29.4113H18.0503C18.0275 30.1532 17.4174 30.7498 16.6702 30.7498ZM18.6139 28.2863H13.3481C12.9318 28.2863 12.5931 27.9476 12.5931 27.5313V27.1312H19.3687V27.5313C19.3687 27.9476 19.0301 28.2863 18.6139 28.2863ZM20.5924 23.0415C19.8148 23.5048 19.3688 24.2895 19.3688 25.1944V26.0061H12.5931V25.1944C12.5931 24.2895 12.1472 23.5048 11.3697 23.0415C8.64923 21.4205 6.95923 18.4486 6.95923 15.2853C6.95923 10.3107 11.0064 6.26361 15.981 6.26361C20.9557 6.26361 25.0029 10.3107 25.0029 15.2853C25.0028 18.4486 23.3128 21.4205 20.5924 23.0415ZM22.2309 13.68H21.6269C21.5032 13.2434 21.3298 12.8249 21.1082 12.4286L21.5355 12.0014C21.7552 11.7817 21.7552 11.4255 21.5355 11.2059L20.0607 9.73086C19.9552 9.62536 19.8121 9.56611 19.6629 9.56611C19.5137 9.56611 19.3707 9.62536 19.2652 9.73086L18.8378 10.1582C18.4412 9.93648 18.0228 9.76305 17.5864 9.63942V9.03548C17.5864 8.7248 17.3346 8.47298 17.0239 8.47298H14.9381C14.6274 8.47298 14.3756 8.7248 14.3756 9.03548V9.63942C13.939 9.76305 13.5205 9.93648 13.1241 10.1582L12.6969 9.73092C12.4771 9.51123 12.121 9.51123 11.9013 9.73092L10.4263 11.2059C10.2066 11.4256 10.2066 11.7817 10.4263 12.0014L10.8536 12.4287C10.6318 12.8252 10.4584 13.2437 10.3348 13.6801H9.73104C9.42036 13.6801 9.16854 13.932 9.16854 14.2426V16.3285C9.16854 16.6392 9.42036 16.891 9.73104 16.891H10.3349C10.4585 17.3275 10.6319 17.746 10.8536 18.1425L10.4263 18.5697C10.2066 18.7895 10.2067 19.1456 10.4263 19.3653L11.9013 20.8403C12.0068 20.9458 12.1499 21.005 12.299 21.005C12.4482 21.005 12.5914 20.9458 12.6968 20.8402L13.124 20.413C13.5206 20.6347 13.9392 20.8082 14.3755 20.9317V21.5356C14.3755 21.8463 14.6274 22.0981 14.938 22.0981H17.0239C17.3345 22.0981 17.5864 21.8463 17.5864 21.5356V20.9317C18.0228 20.808 18.4414 20.6346 18.8378 20.4129L19.2652 20.8402C19.4849 21.0599 19.8409 21.0599 20.0607 20.8402L21.5355 19.3652C21.7552 19.1456 21.7552 18.7895 21.5355 18.5697L21.1082 18.1424C21.3299 17.7459 21.5034 17.3274 21.627 16.891H22.2309C22.5416 16.891 22.7934 16.6392 22.7934 16.3285V14.2426C22.7934 13.9319 22.5416 13.68 22.2309 13.68ZM21.6684 15.7659H21.1843C20.916 15.7659 20.6851 15.9554 20.6327 16.2184C20.5115 16.8265 20.2749 17.3972 19.9295 17.9148C19.7807 18.1379 19.81 18.435 19.9997 18.6247L20.3423 18.9674L19.6629 19.6468L19.3202 19.3042C19.1305 19.1145 18.8332 19.085 18.6102 19.2341C18.093 19.5793 17.5222 19.8159 16.9139 19.9372C16.6509 19.9896 16.4614 20.2205 16.4614 20.4888V20.9729H15.5006V20.4888C15.5006 20.2205 15.3111 19.9895 15.048 19.9372C14.4399 19.816 13.8692 19.5795 13.3517 19.2341C13.1287 19.0851 12.8314 19.1145 12.6417 19.3042L12.2991 19.6469L11.6196 18.9674L11.9622 18.6247C12.1519 18.435 12.1812 18.1378 12.0323 17.9147C11.6871 17.3975 11.4505 16.8269 11.3292 16.2184C11.2768 15.9554 11.0459 15.7659 10.7776 15.7659H10.2936V14.805H10.7776C11.0459 14.805 11.2769 14.6155 11.3292 14.3524C11.4504 13.7444 11.6869 13.1737 12.0323 12.6562C12.1812 12.4331 12.1519 12.1359 11.9622 11.9462L11.6196 11.6035L12.2991 10.924L12.6417 11.2667C12.8314 11.4564 13.1285 11.4857 13.3517 11.3368C13.8688 10.9916 14.4395 10.755 15.0482 10.6337C15.3112 10.5812 15.5006 10.3503 15.5006 10.082V9.59792H16.4614V10.082C16.4614 10.3503 16.6509 10.5812 16.9139 10.6337C17.522 10.7549 18.0927 10.9915 18.6102 11.3368C18.8335 11.4857 19.1305 11.4564 19.3202 11.2667L19.6629 10.924L20.3423 11.6035L19.9996 11.9462C19.8099 12.1359 19.7805 12.4332 19.9295 12.6563C20.2746 13.1731 20.5112 13.7438 20.6327 14.3525C20.6852 14.6155 20.9161 14.805 21.1843 14.805H21.6684V15.7659ZM15.9808 11.473C13.8786 11.473 12.1684 13.1833 12.1684 15.2855C12.1684 17.3877 13.8786 19.0979 15.9808 19.0979C18.083 19.0979 19.7933 17.3877 19.7933 15.2855C19.7933 13.1833 18.083 11.473 15.9808 11.473ZM15.9808 17.9729C14.499 17.9729 13.2934 16.7674 13.2934 15.2855C13.2934 13.8036 14.499 12.598 15.9808 12.598C17.4627 12.598 18.6683 13.8036 18.6683 15.2855C18.6683 16.7674 17.4627 17.9729 15.9808 17.9729Z" fill="#064BA2"/>
</svg>
