<svg width="15" height="16" viewBox="0 0 15 16" fill="none" xmlns="http://www.w3.org/2000/svg">
<g clip-path="url(#clip0_25_6084)">
<path d="M14.5917 11.1379L12.4984 9.04459C11.7508 8.29698 10.4799 8.59605 10.1809 9.56791C9.95658 10.2408 9.20898 10.6146 8.53613 10.465C7.04092 10.0912 5.02239 8.14746 4.64859 6.57749C4.42431 5.90462 4.87287 5.15701 5.54571 4.93276C6.5176 4.63372 6.81664 3.36279 6.06904 2.61518L3.97574 0.521887C3.37766 -0.00143638 2.48053 -0.00143638 1.95721 0.521887L0.536758 1.94234C-0.883692 3.43755 0.68628 7.39986 4.20002 10.9136C7.71377 14.4273 11.6761 16.0721 13.1713 14.5769L14.5917 13.1564C15.1151 12.5583 15.1151 11.6612 14.5917 11.1379Z" fill="#064BA2"/>
</g>
<defs>
<clipPath id="clip0_25_6084">
<rect width="15" height="15" fill="white" transform="translate(0 0.129395)"/>
</clipPath>
</defs>
</svg>
