<svg width="16" height="17" viewBox="0 0 16 17" fill="none" xmlns="http://www.w3.org/2000/svg">
<g clip-path="url(#clip0_25_6088)">
<path d="M8 0.129395C4.69141 0.129395 2 2.82111 2 6.12939C2 10.5558 7.53581 15.8169 7.7715 16.0389C7.83594 16.0991 7.91797 16.1294 8 16.1294C8.08203 16.1294 8.16406 16.0991 8.22853 16.0389C8.46419 15.8169 14 10.5558 14 6.12939C14 2.82111 11.3086 0.129395 8 0.129395ZM8 9.46274C6.16209 9.46274 4.66666 7.9673 4.66666 6.12939C4.66666 4.29149 6.16213 2.79605 8 2.79605C9.83787 2.79605 11.3333 4.29152 11.3333 6.12939C11.3333 7.96727 9.83791 9.46274 8 9.46274Z" fill="#064BA2"/>
</g>
<defs>
<clipPath id="clip0_25_6088">
<rect width="16" height="16" fill="white" transform="translate(0 0.129395)"/>
</clipPath>
</defs>
</svg>
