<svg width="31" height="31" viewBox="0 0 31 31" fill="none" xmlns="http://www.w3.org/2000/svg">
<g clip-path="url(#clip0_25_6092)">
<mask id="mask0_25_6092" style="mask-type:luminance" maskUnits="userSpaceOnUse" x="0" y="0" width="31" height="31">
<path d="M0 0H31V31H0V0Z" fill="white"/>
</mask>
<g mask="url(#mask0_25_6092)">
<path fill-rule="evenodd" clip-rule="evenodd" d="M30.6217 6.83657C31.1261 7.341 31.1261 8.15883 30.6217 8.66327L18.3508 20.9341C17.8464 21.4385 17.0286 21.4385 16.5242 20.9341L10.9792 15.3891L2.20502 24.1633C1.70058 24.6677 0.882747 24.6677 0.37832 24.1633C-0.126107 23.6589 -0.126107 22.841 0.37832 22.3366L10.0658 12.6491C10.5703 12.1446 11.3881 12.1446 11.8925 12.6491L17.4375 18.1941L28.795 6.83657C29.2994 6.33215 30.1173 6.33215 30.6217 6.83657Z" fill="#064BA2"/>
<path fill-rule="evenodd" clip-rule="evenodd" d="M20.6667 7.74992C20.6667 7.03656 21.245 6.45825 21.9584 6.45825H29.7084C30.4217 6.45825 31 7.03656 31 7.74992V15.4999C31 16.2133 30.4217 16.7916 29.7084 16.7916C28.995 16.7916 28.4167 16.2133 28.4167 15.4999V9.04159H21.9584C21.245 9.04159 20.6667 8.46328 20.6667 7.74992Z" fill="#064BA2"/>
</g>
</g>
<defs>
<clipPath id="clip0_25_6092">
<rect width="31" height="31" fill="white"/>
</clipPath>
</defs>
</svg>
