<svg width="145" height="58" viewBox="0 0 145 58" fill="none" xmlns="http://www.w3.org/2000/svg">
<path d="M55.8785 55.1235C55.2388 55.1235 54.6942 54.9778 54.2445 54.6865C53.8012 54.3952 53.4908 53.9962 53.3135 53.4895L54.254 52.9385C54.52 53.6858 55.071 54.0595 55.907 54.0595C56.3187 54.0595 56.6258 53.9803 56.8285 53.822C57.0375 53.6573 57.142 53.4452 57.142 53.1855C57.142 52.9132 57.0312 52.7073 56.8095 52.568C56.5878 52.4223 56.1952 52.264 55.6315 52.093C55.3148 51.998 55.0583 51.9093 54.862 51.827C54.6657 51.7447 54.4567 51.6307 54.235 51.485C54.0197 51.333 53.8582 51.1462 53.7505 50.9245C53.6428 50.7028 53.589 50.4432 53.589 50.1455C53.589 49.5565 53.798 49.091 54.216 48.749C54.634 48.4007 55.1375 48.2265 55.7265 48.2265C56.2585 48.2265 56.724 48.3563 57.123 48.616C57.522 48.8757 57.8292 49.2335 58.0445 49.6895L57.123 50.2215C56.8443 49.6008 56.3788 49.2905 55.7265 49.2905C55.4098 49.2905 55.1565 49.3665 54.9665 49.5185C54.7765 49.6642 54.6815 49.8637 54.6815 50.117C54.6815 50.364 54.7765 50.5603 54.9665 50.706C55.1628 50.8453 55.5143 50.9942 56.021 51.1525C56.2743 51.2348 56.458 51.2982 56.572 51.3425C56.6923 51.3805 56.857 51.4438 57.066 51.5325C57.2813 51.6212 57.4428 51.7098 57.5505 51.7985C57.6582 51.8872 57.7722 51.998 57.8925 52.131C58.0192 52.264 58.1078 52.416 58.1585 52.587C58.2092 52.758 58.2345 52.9512 58.2345 53.1665C58.2345 53.7682 58.016 54.2463 57.579 54.601C57.1483 54.9493 56.5815 55.1235 55.8785 55.1235ZM61.3861 55.1235C60.6895 55.1235 60.0973 54.8828 59.6096 54.4015C59.122 53.9202 58.8781 53.328 58.8781 52.625C58.8781 51.922 59.122 51.3298 59.6096 50.8485C60.0973 50.3672 60.6895 50.1265 61.3861 50.1265C62.0891 50.1265 62.6813 50.3672 63.1626 50.8485C63.6503 51.3298 63.8941 51.922 63.8941 52.625C63.8941 53.328 63.6503 53.9202 63.1626 54.4015C62.6813 54.8828 62.0891 55.1235 61.3861 55.1235ZM60.3316 53.6985C60.6166 53.9835 60.9681 54.126 61.3861 54.126C61.8041 54.126 62.1556 53.9835 62.4406 53.6985C62.7256 53.4135 62.8681 53.0557 62.8681 52.625C62.8681 52.1943 62.7256 51.8365 62.4406 51.5515C62.1556 51.2665 61.8041 51.124 61.3861 51.124C60.9681 51.124 60.6166 51.2665 60.3316 51.5515C60.0466 51.8365 59.9041 52.1943 59.9041 52.625C59.9041 53.0557 60.0466 53.4135 60.3316 53.6985ZM67.0489 49.2145C66.3015 49.1448 65.9279 49.4583 65.9279 50.155V50.25H67.0489V51.238H65.9279V55H64.9019V51.238H64.1799V50.25H64.9019V50.155C64.9019 49.5027 65.0824 49.0087 65.4434 48.673C65.8107 48.331 66.3459 48.1822 67.0489 48.2265V49.2145ZM70.3717 51.238H69.1937V53.518C69.1937 53.7143 69.238 53.8568 69.3267 53.9455C69.4154 54.0278 69.5452 54.0753 69.7162 54.088C69.8935 54.0943 70.112 54.0912 70.3717 54.0785V55C69.5864 55.095 69.0227 55.0285 68.6807 54.8005C68.3387 54.5662 68.1677 54.1387 68.1677 53.518V51.238H67.2937V50.25H68.1677V49.224L69.1937 48.92V50.25H70.3717V51.238ZM76.7257 50.25H77.8087L76.3172 55H75.3102L74.3222 51.7985L73.3247 55H72.3177L70.8262 50.25H71.9092L72.8307 53.5275L73.8282 50.25H74.8067L75.7947 53.5275L76.7257 50.25ZM82.0457 50.25H83.0717V55H82.0457V54.316C81.6593 54.8543 81.1052 55.1235 80.3832 55.1235C79.7308 55.1235 79.1735 54.8828 78.7112 54.4015C78.2488 53.9138 78.0177 53.3217 78.0177 52.625C78.0177 51.922 78.2488 51.3298 78.7112 50.8485C79.1735 50.3672 79.7308 50.1265 80.3832 50.1265C81.1052 50.1265 81.6593 50.3925 82.0457 50.9245V50.25ZM79.4712 53.7175C79.7562 54.0025 80.114 54.145 80.5447 54.145C80.9753 54.145 81.3332 54.0025 81.6182 53.7175C81.9032 53.4262 82.0457 53.062 82.0457 52.625C82.0457 52.188 81.9032 51.827 81.6182 51.542C81.3332 51.2507 80.9753 51.105 80.5447 51.105C80.114 51.105 79.7562 51.2507 79.4712 51.542C79.1862 51.827 79.0437 52.188 79.0437 52.625C79.0437 53.062 79.1862 53.4262 79.4712 53.7175ZM85.1985 51.048C85.4582 50.459 85.9459 50.1645 86.6615 50.1645V51.276C86.2689 51.2507 85.9269 51.3457 85.6355 51.561C85.3442 51.77 85.1985 52.1183 85.1985 52.606V55H84.1725V50.25H85.1985V51.048ZM87.9095 53.062C87.9855 53.423 88.1596 53.7017 88.432 53.898C88.7043 54.088 89.0368 54.183 89.4295 54.183C89.9741 54.183 90.3826 53.9867 90.655 53.594L91.5005 54.088C91.0318 54.7783 90.3383 55.1235 89.42 55.1235C88.6473 55.1235 88.0235 54.8892 87.5485 54.4205C87.0735 53.9455 86.836 53.347 86.836 52.625C86.836 51.9157 87.0703 51.3235 87.539 50.8485C88.0076 50.3672 88.6093 50.1265 89.344 50.1265C90.0406 50.1265 90.6106 50.3703 91.054 50.858C91.5036 51.3457 91.7285 51.9378 91.7285 52.6345C91.7285 52.7422 91.7158 52.8847 91.6905 53.062H87.9095ZM87.9 52.226H90.693C90.6233 51.8397 90.4618 51.5483 90.2085 51.352C89.9615 51.1557 89.6701 51.0575 89.3345 51.0575C88.9545 51.0575 88.6378 51.162 88.3845 51.371C88.1311 51.58 87.9696 51.865 87.9 52.226ZM95.9753 53.955H98.9203V55H94.8828V48.35H98.8728V49.395H95.9753V51.124H98.6353V52.1595H95.9753V53.955ZM102.257 50.1265C102.802 50.1265 103.242 50.3007 103.578 50.649C103.914 50.9973 104.081 51.4755 104.081 52.0835V55H103.055V52.188C103.055 51.8333 102.96 51.561 102.77 51.371C102.58 51.181 102.321 51.086 101.991 51.086C101.63 51.086 101.339 51.2 101.117 51.428C100.896 51.6497 100.785 51.9917 100.785 52.454V55H99.7589V50.25H100.785V50.858C101.095 50.3703 101.586 50.1265 102.257 50.1265ZM108.872 50.25H109.879V54.7815C109.879 55.5035 109.642 56.0577 109.167 56.444C108.692 56.8303 108.115 57.0235 107.438 57.0235C106.342 57.0235 105.591 56.6403 105.186 55.874L106.07 55.361C106.317 55.8487 106.779 56.0925 107.457 56.0925C107.9 56.0925 108.245 55.9753 108.492 55.741C108.745 55.513 108.872 55.1932 108.872 54.7815V54.202C108.486 54.753 107.935 55.0285 107.219 55.0285C106.548 55.0285 105.981 54.791 105.519 54.316C105.056 53.8347 104.825 53.2552 104.825 52.5775C104.825 51.8998 105.056 51.3235 105.519 50.8485C105.981 50.3672 106.548 50.1265 107.219 50.1265C107.935 50.1265 108.486 50.402 108.872 50.953V50.25ZM106.279 53.6415C106.57 53.9265 106.931 54.069 107.362 54.069C107.792 54.069 108.15 53.9265 108.435 53.6415C108.726 53.3565 108.872 53.0018 108.872 52.5775C108.872 52.1532 108.726 51.7985 108.435 51.5135C108.15 51.2285 107.792 51.086 107.362 51.086C106.931 51.086 106.57 51.2285 106.279 51.5135C105.994 51.7985 105.851 52.1532 105.851 52.5775C105.851 53.0018 105.994 53.3565 106.279 53.6415ZM111.949 49.3475C111.822 49.4742 111.67 49.5375 111.493 49.5375C111.316 49.5375 111.16 49.4742 111.027 49.3475C110.901 49.2145 110.837 49.0593 110.837 48.882C110.837 48.7047 110.901 48.5527 111.027 48.426C111.154 48.293 111.309 48.2265 111.493 48.2265C111.677 48.2265 111.832 48.293 111.958 48.426C112.085 48.5527 112.148 48.7047 112.148 48.882C112.148 49.0593 112.082 49.2145 111.949 49.3475ZM110.98 55V50.25H112.006V55H110.98ZM115.601 50.1265C116.145 50.1265 116.586 50.3007 116.921 50.649C117.257 50.9973 117.425 51.4755 117.425 52.0835V55H116.399V52.188C116.399 51.8333 116.304 51.561 116.114 51.371C115.924 51.181 115.664 51.086 115.335 51.086C114.974 51.086 114.682 51.2 114.461 51.428C114.239 51.6497 114.128 51.9917 114.128 52.454V55H113.102V50.25H114.128V50.858C114.439 50.3703 114.929 50.1265 115.601 50.1265ZM119.242 53.062C119.318 53.423 119.492 53.7017 119.765 53.898C120.037 54.088 120.369 54.183 120.762 54.183C121.307 54.183 121.715 53.9867 121.988 53.594L122.833 54.088C122.364 54.7783 121.671 55.1235 120.753 55.1235C119.98 55.1235 119.356 54.8892 118.881 54.4205C118.406 53.9455 118.169 53.347 118.169 52.625C118.169 51.9157 118.403 51.3235 118.872 50.8485C119.34 50.3672 119.942 50.1265 120.677 50.1265C121.373 50.1265 121.943 50.3703 122.387 50.858C122.836 51.3457 123.061 51.9378 123.061 52.6345C123.061 52.7422 123.048 52.8847 123.023 53.062H119.242ZM119.233 52.226H122.026C121.956 51.8397 121.794 51.5483 121.541 51.352C121.294 51.1557 121.003 51.0575 120.667 51.0575C120.287 51.0575 119.97 51.162 119.717 51.371C119.464 51.58 119.302 51.865 119.233 52.226ZM124.648 53.062C124.724 53.423 124.899 53.7017 125.171 53.898C125.443 54.088 125.776 54.183 126.168 54.183C126.713 54.183 127.122 53.9867 127.394 53.594L128.239 54.088C127.771 54.7783 127.077 55.1235 126.159 55.1235C125.386 55.1235 124.762 54.8892 124.287 54.4205C123.812 53.9455 123.575 53.347 123.575 52.625C123.575 51.9157 123.809 51.3235 124.278 50.8485C124.747 50.3672 125.348 50.1265 126.083 50.1265C126.78 50.1265 127.35 50.3703 127.793 50.858C128.243 51.3457 128.467 51.9378 128.467 52.6345C128.467 52.7422 128.455 52.8847 128.429 53.062H124.648ZM124.639 52.226H127.432C127.362 51.8397 127.201 51.5483 126.947 51.352C126.7 51.1557 126.409 51.0575 126.073 51.0575C125.693 51.0575 125.377 51.162 125.123 51.371C124.87 51.58 124.709 51.865 124.639 52.226ZM130.301 51.048C130.561 50.459 131.049 50.1645 131.764 50.1645V51.276C131.372 51.2507 131.03 51.3457 130.738 51.561C130.447 51.77 130.301 52.1183 130.301 52.606V55H129.275V50.25H130.301V51.048ZM133.396 49.3475C133.27 49.4742 133.118 49.5375 132.94 49.5375C132.763 49.5375 132.608 49.4742 132.475 49.3475C132.348 49.2145 132.285 49.0593 132.285 48.882C132.285 48.7047 132.348 48.5527 132.475 48.426C132.602 48.293 132.757 48.2265 132.94 48.2265C133.124 48.2265 133.279 48.293 133.406 48.426C133.533 48.5527 133.596 48.7047 133.596 48.882C133.596 49.0593 133.529 49.2145 133.396 49.3475ZM132.427 55V50.25H133.453V55H132.427ZM137.048 50.1265C137.593 50.1265 138.033 50.3007 138.369 50.649C138.704 50.9973 138.872 51.4755 138.872 52.0835V55H137.846V52.188C137.846 51.8333 137.751 51.561 137.561 51.371C137.371 51.181 137.111 51.086 136.782 51.086C136.421 51.086 136.13 51.2 135.908 51.428C135.686 51.6497 135.576 51.9917 135.576 52.454V55H134.55V50.25H135.576V50.858C135.886 50.3703 136.377 50.1265 137.048 50.1265ZM143.663 50.25H144.67V54.7815C144.67 55.5035 144.432 56.0577 143.957 56.444C143.482 56.8303 142.906 57.0235 142.228 57.0235C141.133 57.0235 140.382 56.6403 139.977 55.874L140.86 55.361C141.107 55.8487 141.57 56.0925 142.247 56.0925C142.691 56.0925 143.036 55.9753 143.283 55.741C143.536 55.513 143.663 55.1932 143.663 54.7815V54.202C143.277 54.753 142.726 55.0285 142.01 55.0285C141.339 55.0285 140.772 54.791 140.309 54.316C139.847 53.8347 139.616 53.2552 139.616 52.5775C139.616 51.8998 139.847 51.3235 140.309 50.8485C140.772 50.3672 141.339 50.1265 142.01 50.1265C142.726 50.1265 143.277 50.402 143.663 50.953V50.25ZM141.069 53.6415C141.361 53.9265 141.722 54.069 142.152 54.069C142.583 54.069 142.941 53.9265 143.226 53.6415C143.517 53.3565 143.663 53.0018 143.663 52.5775C143.663 52.1532 143.517 51.7985 143.226 51.5135C142.941 51.2285 142.583 51.086 142.152 51.086C141.722 51.086 141.361 51.2285 141.069 51.5135C140.784 51.7985 140.642 52.1532 140.642 52.5775C140.642 53.0018 140.784 53.3565 141.069 53.6415Z" fill="#353535"/>
<path d="M57.9248 4.13403V25.8077C57.9248 34.008 61.6403 37.4851 66.6328 37.4851C72.1852 37.4851 75.7325 33.8992 75.7325 25.8077V4.13403H80.6125V25.4799C80.6125 36.7223 74.5681 41.3398 66.4709 41.3398C58.8163 41.3398 53.0526 37.0485 53.0526 25.6974V4.13403H57.9248Z" fill="#064BA2"/>
<path d="M102.048 40.6507V31.0831H85.4354V27.9471L101.387 5.51196H106.612V27.3517H111.617V31.0831H106.612V40.6507H102.048ZM102.048 27.3517V15.6253C102.048 13.7881 102.103 11.9505 102.213 10.1123H102.048C100.946 12.166 100.059 13.6799 99.077 15.302L90.3303 27.245V27.3517H102.048Z" fill="#064BA2"/>
<path d="M121.329 4.13403V25.8077C121.329 34.008 125.046 37.4851 130.037 37.4851C135.589 37.4851 139.136 33.8992 139.136 25.8077V4.13403H144V25.4799C144 36.7223 137.954 41.3398 129.858 41.3398C122.205 41.3398 116.44 37.0485 116.44 25.6974V4.13403H121.329Z" fill="#064BA2"/>
<path d="M23.4943 43.4066C21.9444 43.4069 20.41 43.0981 18.9807 42.4984C17.5515 41.8986 16.2559 41.0199 15.1698 39.9136C14.8271 39.9442 14.483 39.9595 14.1434 39.9595C12.4195 39.9596 10.717 39.578 9.15801 38.8419C7.599 38.1058 6.22214 37.0335 5.1262 35.702C4.03027 34.3704 3.24244 32.8127 2.81924 31.1405C2.39605 29.4682 2.34797 27.723 2.67847 26.03C0.9431 23.9386 -0.00467797 21.3045 1.73621e-05 18.5862C0.010905 16.0671 0.83002 13.6181 2.33669 11.6001C3.84337 9.582 5.95793 8.10152 8.36885 7.37675C9.0663 5.61914 10.1794 4.05706 11.6127 2.82449C13.046 1.59192 14.7566 0.725656 16.598 0.300004C18.4393 -0.125648 20.3563 -0.0979857 22.1846 0.38062C24.0129 0.859226 25.6979 1.77449 27.0951 3.0479C28.9639 2.80936 30.8626 3.02634 32.6296 3.68035C34.3965 4.33437 35.9793 5.40604 37.2432 6.8041C38.507 8.20215 39.4145 9.88517 39.8883 11.7098C40.3621 13.5344 40.3881 15.4466 39.9642 17.2835C41.7494 19.3908 42.7256 22.0658 42.7177 24.8284C42.7068 27.3474 41.8876 29.7964 40.381 31.8145C38.8743 33.8325 36.7597 35.313 34.3488 36.0378C33.4909 38.2166 31.9959 40.0856 30.0592 41.4004C28.1226 42.7151 25.8345 43.4144 23.4943 43.4066ZM23.8002 32.6228L16.9044 37.3389C17.908 38.5183 19.2091 39.407 20.6724 39.9125C22.1356 40.418 23.7075 40.5218 25.2245 40.2131C26.7414 39.9045 28.148 39.1946 29.2978 38.1574C30.4475 37.1203 31.2985 35.7937 31.7621 34.3157L23.8078 32.6228L32.8895 33.2917C34.4039 32.9625 35.8023 32.2327 36.9388 31.1784C38.0754 30.1242 38.9084 28.7841 39.3511 27.2979C39.7937 25.8118 39.8298 24.234 39.4555 22.7291C39.0812 21.2242 38.3102 19.8474 37.2231 18.7423L31.909 18.9505L36.8575 17.233C37.3084 15.7953 37.3772 14.2648 37.057 12.7924C36.7368 11.32 36.0387 9.95655 35.0315 8.83636C34.0243 7.71617 32.7428 6.87795 31.3133 6.40431C29.8838 5.93068 28.3556 5.83798 26.8794 6.13535L18.4662 10.5438L25.5027 5.69756C24.463 4.60632 23.1569 3.80536 21.7132 3.37381C20.2695 2.94225 18.7384 2.89502 17.2709 3.23679C15.8034 3.57856 14.4504 4.2975 13.3455 5.32259C12.2407 6.34769 11.4221 7.64348 10.9708 9.08197L18.4662 10.5438L9.84193 10.1152C8.33934 10.4425 6.95095 11.1643 5.81948 12.2065C4.68801 13.2486 3.85428 14.5734 3.40398 16.0448C2.95367 17.5162 2.90304 19.081 3.2573 20.5785C3.61155 22.0759 4.35791 23.4519 5.41965 24.5651L9.90924 23.8426L5.77912 26.0009C5.43117 27.2862 5.38375 28.6344 5.64056 29.941C5.89736 31.2476 6.45148 32.4775 7.25994 33.5352C8.0684 34.5929 9.10946 35.45 10.3024 36.0401C11.4953 36.6302 12.8081 36.9374 14.1388 36.9379C14.5998 36.9374 15.0601 36.901 15.5155 36.8292L23.8002 32.6228Z" fill="#064BA2"/>
<path d="M23.4436 32.5421C21.7506 32.9197 19.9171 32.091 18.2821 30.2088C16.7114 28.4015 15.4921 25.8159 14.8503 22.9261C14.2086 20.0363 14.2132 17.177 14.8671 14.8744C15.5501 12.4753 16.8535 10.9463 18.5526 10.5687C20.2517 10.191 22.0684 11.0212 23.7095 12.9019C25.2772 14.7092 26.4995 17.2902 27.1413 20.1846C27.783 23.079 27.7784 25.9337 27.1229 28.2364C26.4415 30.6354 25.1335 32.1644 23.4436 32.5421ZM18.7482 11.4417C17.3913 11.7475 16.3202 13.0487 15.7335 15.1114C15.1223 17.2734 15.1223 19.9751 15.7335 22.7212C16.3447 25.4673 17.4937 27.9122 18.9667 29.6094C20.3754 31.2302 21.8988 31.9565 23.2541 31.6537C24.6094 31.351 25.6821 30.0483 26.2688 27.9841C26.88 25.8221 26.88 23.1203 26.2688 20.3742C25.6576 17.6281 24.5086 15.1832 23.0356 13.4937C21.6268 11.8729 20.1035 11.1466 18.7482 11.4494V11.4417Z" fill="#064BA2"/>
<path d="M30.6357 27.0484C30.5524 27.0667 30.4656 27.0614 30.3851 27.0331C28.1711 26.2319 25.1763 26.1585 22.1677 26.8297C19.1592 27.501 16.4776 28.8388 14.8136 30.4993C14.736 30.5748 14.6342 30.6203 14.5263 30.6279C14.4183 30.6354 14.3112 30.6045 14.2238 30.5406C12.0512 28.902 10.5456 26.531 9.98594 23.8667C9.42631 21.2024 9.85057 18.4255 11.1801 16.0502C11.2313 15.9621 11.3102 15.8936 11.4045 15.8554C11.4989 15.8172 11.6032 15.8115 11.7012 15.8392C13.877 16.489 16.8 16.489 19.7215 15.8392C22.6429 15.1894 25.2894 13.9463 26.9839 12.4341C27.0608 12.3671 27.1579 12.3277 27.2598 12.3222C27.3616 12.3167 27.4624 12.3453 27.5462 12.4035C29.7574 13.9902 31.3188 16.3252 31.9411 18.9759C32.5634 21.6265 32.2044 24.413 30.9306 26.819C30.9011 26.8764 30.8594 26.9267 30.8085 26.9663C30.7575 27.0059 30.6986 27.0339 30.6357 27.0484ZM21.9721 25.9505C24.9777 25.2808 27.9893 25.3221 30.3133 26.0576C31.3466 23.9156 31.6115 21.483 31.0636 19.1686C30.5157 16.8541 29.1884 14.799 27.3047 13.3484C25.4972 14.8515 22.8324 16.067 19.917 16.7214C17.0017 17.3758 14.0726 17.3988 11.7974 16.8055C10.7078 18.9193 10.3781 21.3439 10.8639 23.6721C11.3497 26.0003 12.6214 28.0903 14.4653 29.5911C16.2621 27.9383 18.9666 26.6172 21.9721 25.9505Z" fill="#064BA2"/>
<path d="M23.4436 32.5419C21.8547 32.8969 20.2077 32.9021 18.6166 32.5573C17.0255 32.2126 15.5283 31.526 14.2285 30.5451C14.178 30.5055 14.1365 30.4557 14.1065 30.3991C14.0764 30.3424 14.0586 30.2801 14.0542 30.2161C14.0497 30.1522 14.0587 30.088 14.0805 30.0277C14.1024 29.9674 14.1367 29.9124 14.1811 29.8662C15.9642 28.0849 18.8062 26.6553 21.9737 25.9504C25.1412 25.2455 28.3224 25.3296 30.6923 26.1858C30.7529 26.2075 30.8081 26.242 30.8543 26.2869C30.9004 26.3319 30.9362 26.3862 30.9594 26.4463C30.9826 26.5064 30.9926 26.5708 30.9887 26.6351C30.9848 26.6993 30.9671 26.762 30.9367 26.8189C30.1768 28.2592 29.1131 29.517 27.8193 30.5052C26.5254 31.4934 25.0324 32.1883 23.4436 32.5419ZM15.2018 30.1338C16.368 30.9219 17.6827 31.4638 19.0654 31.7262C20.4481 31.9887 21.8697 31.9661 23.2434 31.66C24.6171 31.3539 25.9139 30.7706 27.0547 29.9458C28.1954 29.1211 29.156 28.0721 29.8779 26.8632C27.725 26.2225 24.9517 26.2057 22.1678 26.8265C19.3838 27.4473 16.8734 28.643 15.2018 30.1338Z" fill="#064BA2"/>
<path d="M19.917 16.7214C16.8504 17.4048 13.7624 17.4002 11.4444 16.7061C11.3797 16.6869 11.3201 16.6534 11.2701 16.6081C11.2201 16.5627 11.1809 16.5067 11.1555 16.4441C11.1301 16.3815 11.1191 16.314 11.1234 16.2466C11.1277 16.1792 11.147 16.1136 11.1801 16.0547C11.9534 14.673 13.0093 13.4701 14.2789 12.5247C15.5485 11.5793 17.0032 10.9127 18.5479 10.5683C20.0926 10.224 21.6925 10.2098 23.243 10.5265C24.7936 10.8433 26.2599 11.4839 27.5461 12.4065C27.6005 12.4464 27.6453 12.4977 27.6775 12.5569C27.7098 12.6161 27.7285 12.6817 27.7326 12.749C27.736 12.8166 27.724 12.884 27.6975 12.9463C27.671 13.0085 27.6308 13.0639 27.5798 13.1083C25.7783 14.7214 22.9852 16.0379 19.917 16.7214ZM12.265 15.9936C14.369 16.489 17.046 16.4385 19.7214 15.8407C22.3969 15.2428 24.8432 14.1587 26.5377 12.8102C24.2228 11.3402 21.4195 10.8496 18.7435 11.4462C16.0674 12.0428 13.7374 13.6777 12.265 15.992V15.9936Z" fill="#064BA2"/>
<path d="M18.114 11.1114C18.1011 11.0538 18.0996 10.9941 18.1097 10.9359C18.1198 10.8777 18.1412 10.8221 18.1728 10.7722C18.2365 10.6714 18.3377 10.6001 18.454 10.5739C18.5703 10.5478 18.6922 10.5689 18.793 10.6327C18.8937 10.6965 18.9649 10.7978 18.9911 10.9141L23.8286 32.0145C23.8473 32.1282 23.8218 32.2448 23.7573 32.3403C23.6928 32.4358 23.5942 32.5029 23.4818 32.528C23.3694 32.553 23.2516 32.534 23.1527 32.4749C23.0538 32.4158 22.9813 32.3211 22.95 32.2102" fill="#064BA2"/>
<path d="M31.6319 19.6449L10.546 24.3451C10.4324 24.3638 10.3159 24.3383 10.2204 24.2737C10.125 24.2092 10.0579 24.1105 10.0329 23.998C10.0078 23.8855 10.0268 23.7677 10.0859 23.6688C10.1449 23.5698 10.2396 23.4972 10.3504 23.4659L31.4363 18.7657C31.55 18.747 31.6665 18.7726 31.7619 18.8371C31.8573 18.9017 31.9244 19.0003 31.9495 19.1128C31.9745 19.2253 31.9555 19.3431 31.8965 19.4421C31.8374 19.541 31.7428 19.6136 31.6319 19.6449Z" fill="#064BA2"/>
</svg>
